# This file uses centimeters as units for non-parametric coordinates.

mtllib SoulDoorPlatform.mtl
g default
v 2.758072 -2.694417 -0.896155
v 2.346162 -2.694417 -1.704583
v 1.704581 -2.694417 -2.346161
v 0.896154 -2.694417 -2.758074
v -0.000000 -2.694417 -2.900013
v -0.896155 -2.694417 -2.758073
v -1.704582 -2.694417 -2.346160
v -2.346159 -2.694417 -1.704582
v -2.758072 -2.694417 -0.896155
v -2.900012 -2.694417 -0.000001
v -2.758072 -2.694417 0.896153
v -2.346159 -2.694417 1.704580
v -1.704582 -2.694417 2.346159
v -0.896155 -2.694417 2.758071
v -0.000001 -2.694417 2.900011
v 0.896153 -2.694417 2.758071
v 1.704581 -2.694417 2.346158
v 2.346158 -2.694417 1.704580
v 2.758071 -2.694417 0.896153
v 2.900010 -2.694417 -0.000001
v 4.045490 1.457954 -1.314461
v 3.441301 1.457954 -2.500251
v 2.500250 1.457954 -3.441300
v 1.314460 1.457954 -4.045489
v -0.000000 1.457954 -4.253681
v -1.314461 1.457954 -4.045489
v -2.500251 1.457954 -3.441300
v -3.441300 1.457954 -2.500251
v -4.045489 1.457954 -1.314461
v -4.253680 1.457954 -0.000000
v -4.045489 1.457954 1.314459
v -3.441300 1.457954 2.500249
v -2.500251 1.457954 3.441298
v -1.314461 1.457954 4.045487
v -0.000000 1.457954 4.253678
v 1.314460 1.457954 4.045487
v 2.500249 1.457954 3.441298
v 3.441298 1.457954 2.500249
v 4.045487 1.457954 1.314459
v 4.253678 1.457954 -0.000000
v 0.000000 -3.600584 0.000000
v 0.000000 1.536496 -0.000000
v 1.574976 0.956840 -4.847277
v 2.995782 0.956840 -4.123342
v 4.123342 0.956840 -2.995783
v 4.847277 0.956840 -1.574977
v 5.096727 0.956840 -0.000000
v 4.847273 0.956840 1.574975
v 4.123338 0.956840 2.995781
v 2.995781 0.956840 4.123339
v 1.574975 0.956840 4.847274
v -0.000000 0.956840 5.096727
v -1.574976 0.956840 4.847274
v -2.995782 0.956840 4.123339
v -4.123339 0.956840 2.995781
v -4.847275 0.956840 1.574975
v -5.096728 0.956840 -0.000000
v -4.847275 0.956840 -1.574976
v -4.123340 0.956840 -2.995782
v -2.995782 0.956840 -4.123340
v -1.574977 0.956840 -4.847276
v -0.000000 0.956840 -5.096729
v 2.068675 0.901282 -6.366725
v 3.934853 0.901282 -5.415861
v 5.415861 0.901282 -3.934853
v 6.366727 0.901282 -2.068675
v 6.694368 0.901282 0.000000
v 6.366723 0.901282 2.068674
v 5.415857 0.901282 3.934851
v 3.934851 0.901282 5.415858
v 2.068673 0.901282 6.366723
v -0.000000 0.901282 6.694369
v -2.068674 0.901282 6.366724
v -3.934852 0.901282 5.415858
v -5.415859 0.901282 3.934852
v -6.366724 0.901282 2.068674
v -6.694370 0.901282 0.000000
v -6.366724 0.901282 -2.068674
v -5.415859 0.901282 -3.934852
v -3.934852 0.901282 -5.415860
v -2.068675 0.901282 -6.366725
v 0.000000 0.901282 -6.694371
v 2.068675 0.058466 -6.366725
v 3.934853 0.058466 -5.415861
v 5.415861 0.058466 -3.934853
v 6.366727 0.058466 -2.068675
v 6.694368 0.058466 0.000000
v 6.366723 0.058466 2.068674
v 5.415857 0.058466 3.934851
v 3.934851 0.058466 5.415858
v 2.068673 0.058466 6.366723
v -0.000000 0.058466 6.694369
v -2.068674 0.058466 6.366723
v -3.934852 0.058466 5.415859
v -5.415859 0.058466 3.934852
v -6.366724 0.058466 2.068674
v -6.694370 0.058466 0.000000
v -6.366724 0.058466 -2.068674
v -5.415860 0.058466 -3.934852
v -3.934852 0.058466 -5.415860
v -2.068675 0.058466 -6.366725
v 0.000000 0.058466 -6.694371
v 1.404016 -2.055654 -4.321116
v 2.670597 -2.055654 -3.675762
v 3.675762 -2.055654 -2.670597
v 4.321116 -2.055654 -1.404016
v 4.543487 -2.055654 -0.000000
v 4.321114 -2.055654 1.404015
v 3.675758 -2.055654 2.670595
v 2.670595 -2.055654 3.675759
v 1.404015 -2.055654 4.321114
v -0.000000 -2.055654 4.543487
v -1.404016 -2.055654 4.321115
v -2.670597 -2.055654 3.675760
v -3.675760 -2.055654 2.670595
v -4.321115 -2.055654 1.404016
v -4.543488 -2.055654 -0.000000
v -4.321115 -2.055654 -1.404016
v -3.675760 -2.055654 -2.670597
v -2.670597 -2.055654 -3.675760
v -1.404016 -2.055654 -4.321116
v -0.000000 -2.055654 -4.543489
v 1.122243 -2.169068 -3.453905
v 2.134629 -2.169068 -2.938070
v 2.938068 -2.169068 -2.134630
v 3.453905 -2.169068 -1.122244
v 3.631653 -2.169068 -0.000001
v 3.453902 -2.169068 1.122243
v 2.938067 -2.169068 2.134628
v 2.134628 -2.169068 2.938068
v 1.122243 -2.169068 3.453902
v -0.000000 -2.169068 3.631653
v -1.122243 -2.169068 3.453903
v -2.134630 -2.169068 2.938068
v -2.938068 -2.169068 2.134628
v -3.453903 -2.169068 1.122243
v -3.631655 -2.169068 -0.000000
v -3.453903 -2.169068 -1.122243
v -2.938069 -2.169068 -2.134630
v -2.134630 -2.169068 -2.938070
v -1.122244 -2.169068 -3.453904
v -0.000000 -2.169068 -3.631655
vt 0.953449 0.630320
vt 0.953449 0.560682
vt 0.998008 0.560682
vt 0.998008 0.630320
vt 0.841678 0.655122
vt 0.841678 0.607859
vt 0.953449 0.505418
vt 0.998008 0.505418
vt 0.953449 0.707514
vt 0.998008 0.707514
vt 0.841678 0.570350
vt 0.841678 0.707514
vt 0.953449 0.784708
vt 0.998008 0.784708
vt 0.841678 0.759906
vt 0.953449 0.854346
vt 0.998008 0.854346
vt 0.841678 0.807169
vt 0.953449 0.909610
vt 0.998008 0.909610
vt 0.841678 0.844677
vt 0.790984 0.630320
vt 0.790984 0.560682
vt 0.835543 0.560682
vt 0.835543 0.630320
vt 0.679213 0.655122
vt 0.679213 0.607859
vt 0.790984 0.505418
vt 0.835543 0.505418
vt 0.790984 0.707514
vt 0.835543 0.707514
vt 0.679213 0.570350
vt 0.679213 0.707514
vt 0.790984 0.784708
vt 0.835543 0.784708
vt 0.679213 0.759906
vt 0.790984 0.854346
vt 0.835543 0.854346
vt 0.679213 0.807169
vt 0.790984 0.909611
vt 0.835543 0.909611
vt 0.679213 0.844677
vt 0.259084 0.188013
vt 0.274455 0.218180
vt 0.171535 0.251621
vt 0.281172 0.171965
vt 0.300420 0.209743
vt 0.279751 0.251621
vt 0.235143 0.164072
vt 0.251191 0.141984
vt 0.308699 0.151965
vt 0.332781 0.199229
vt 0.307053 0.251621
vt 0.274455 0.285061
vt 0.204976 0.148701
vt 0.213413 0.122736
vt 0.271191 0.114457
vt 0.341079 0.251621
vt 0.300420 0.293498
vt 0.259084 0.315228
vt 0.171535 0.143405
vt 0.171535 0.116103
vt 0.223927 0.090375
vt 0.332781 0.304012
vt 0.281172 0.331276
vt 0.235143 0.339169
vt 0.138095 0.148701
vt 0.129658 0.122736
vt 0.171535 0.082077
vt 0.248729 0.014042
vt 0.318367 0.049524
vt 0.308699 0.351276
vt 0.251191 0.361257
vt 0.204976 0.354540
vt 0.107928 0.164072
vt 0.091880 0.141984
vt 0.119144 0.090375
vt 0.171535 0.001816
vt 0.271191 0.388784
vt 0.213413 0.380505
vt 0.171535 0.359837
vt 0.083987 0.188013
vt 0.061899 0.171965
vt 0.071880 0.114457
vt 0.094341 0.014042
vt 0.223927 0.412866
vt 0.171535 0.387138
vt 0.138095 0.354540
vt 0.068616 0.218180
vt 0.042651 0.209743
vt 0.034372 0.151965
vt 0.024704 0.049524
vt 0.318367 0.453717
vt 0.248729 0.489199
vt 0.171535 0.421164
vt 0.129658 0.380505
vt 0.107928 0.339169
vt 0.063320 0.251621
vt 0.036018 0.251621
vt 0.010290 0.199229
vt 0.171535 0.501426
vt 0.119144 0.412866
vt 0.091880 0.361257
vt 0.083987 0.315228
vt 0.068616 0.285061
vt 0.042651 0.293498
vt 0.001992 0.251621
vt 0.094341 0.489199
vt 0.071880 0.388784
vt 0.061899 0.331276
vt 0.010290 0.304012
vt 0.024704 0.453717
vt 0.034372 0.351276
vt 0.749866 0.300671
vt 0.727320 0.344919
vt 0.598906 0.251621
vt 0.779785 0.310392
vt 0.752771 0.363410
vt 0.692204 0.380036
vt 0.757635 0.251621
vt 0.836484 0.328815
vt 0.801002 0.398452
vt 0.710695 0.405486
vt 0.789094 0.251621
vt 0.647956 0.402581
vt 0.749866 0.202571
vt 0.745737 0.453717
vt 0.848711 0.251621
vt 0.657677 0.432500
vt 0.779785 0.192849
vt 0.598906 0.410350
vt 0.727320 0.158322
vt 0.676100 0.489200
vt 0.836484 0.174427
vt 0.598906 0.441809
vt 0.752771 0.139831
vt 0.549856 0.402581
vt 0.692204 0.123207
vt 0.598906 0.501426
vt 0.801002 0.104789
vt 0.540134 0.432500
vt 0.710695 0.097756
vt 0.505607 0.380036
vt 0.647956 0.100661
vt 0.521712 0.489200
vt 0.745737 0.049524
vt 0.487116 0.405486
vt 0.657677 0.070741
vt 0.470491 0.344919
vt 0.598906 0.092892
vt 0.452074 0.453717
vt 0.676100 0.014042
vt 0.445040 0.363410
vt 0.598906 0.061433
vt 0.447945 0.300671
vt 0.549856 0.100661
vt 0.396809 0.398452
vt 0.598906 0.001816
vt 0.418026 0.310392
vt 0.540134 0.070741
vt 0.440177 0.251621
vt 0.505607 0.123207
vt 0.361327 0.328815
vt 0.521712 0.014042
vt 0.408718 0.251621
vt 0.487116 0.097756
vt 0.447945 0.202571
vt 0.470491 0.158322
vt 0.349101 0.251621
vt 0.452074 0.049524
vt 0.418026 0.192849
vt 0.445040 0.139831
vt 0.361327 0.174427
vt 0.396809 0.104789
vt 0.673078 0.505418
vt 0.673078 0.575055
vt 0.628518 0.575055
vt 0.628518 0.505418
vt 0.673078 0.652249
vt 0.628518 0.652249
vt 0.673078 0.729443
vt 0.628518 0.729443
vt 0.673078 0.799081
vt 0.628518 0.799081
vt 0.577824 0.575055
vt 0.577824 0.505418
vt 0.622383 0.505418
vt 0.622383 0.575055
vt 0.577824 0.652249
vt 0.622383 0.652249
vt 0.577824 0.729443
vt 0.622383 0.729443
vt 0.577824 0.799081
vt 0.622383 0.799081
vn 0.554711 -0.812288 -0.180236
vn 0.471866 -0.812287 -0.342830
vn 0.255770 -0.948709 -0.185828
vn 0.300676 -0.948709 -0.097695
vn 0.342830 -0.812287 -0.471865
vn 0.185828 -0.948709 -0.255770
vn 0.180237 -0.812287 -0.554711
vn 0.097696 -0.948709 -0.300676
vn -0.000000 -0.812288 -0.583257
vn -0.000000 -0.948709 -0.316149
vn -0.180237 -0.812287 -0.554711
vn -0.097696 -0.948709 -0.300676
vn -0.342830 -0.812288 -0.471865
vn -0.185828 -0.948709 -0.255770
vn -0.471865 -0.812288 -0.342830
vn -0.255770 -0.948709 -0.185828
vn -0.554711 -0.812287 -0.180237
vn -0.300677 -0.948709 -0.097696
vn -0.583257 -0.812288 -0.000000
vn -0.316149 -0.948710 -0.000000
vn -0.554711 -0.812287 0.180237
vn -0.300676 -0.948709 0.097696
vn -0.471865 -0.812287 0.342830
vn -0.255770 -0.948709 0.185828
vn -0.342830 -0.812287 0.471865
vn -0.185828 -0.948709 0.255770
vn -0.180237 -0.812287 0.554711
vn -0.097696 -0.948709 0.300676
vn 0.000000 -0.812288 0.583257
vn 0.000000 -0.948709 0.316149
vn 0.180237 -0.812287 0.554711
vn 0.097696 -0.948709 0.300677
vn 0.342830 -0.812287 0.471865
vn 0.185828 -0.948709 0.255770
vn 0.471865 -0.812287 0.342830
vn 0.255770 -0.948709 0.185828
vn 0.554711 -0.812287 0.180237
vn 0.300676 -0.948709 0.097696
vn 0.583256 -0.812288 0.000001
vn 0.316149 -0.948709 0.000000
vn 0.241288 -0.954488 -0.175306
vn 0.283652 -0.954488 -0.092164
vn 0.000000 -1.000000 0.000000
vn 0.175306 -0.954488 -0.241288
vn 0.092164 -0.954488 -0.283651
vn -0.000000 -0.954488 -0.298249
vn -0.092164 -0.954488 -0.283651
vn -0.175306 -0.954488 -0.241288
vn -0.241288 -0.954488 -0.175306
vn -0.283652 -0.954488 -0.092164
vn -0.298249 -0.954488 -0.000000
vn -0.283652 -0.954488 0.092164
vn -0.241288 -0.954488 0.175306
vn -0.175306 -0.954488 0.241288
vn -0.092164 -0.954488 0.283652
vn 0.000000 -0.954488 0.298249
vn 0.092164 -0.954488 0.283652
vn 0.175306 -0.954488 0.241289
vn 0.241289 -0.954488 0.175307
vn 0.283652 -0.954488 0.092164
vn 0.298249 -0.954488 -0.000000
vn 0.017558 0.999830 -0.005705
vn 0.014935 0.999830 -0.010851
vn -0.000000 1.000000 0.000000
vn 0.010851 0.999830 -0.014935
vn 0.005705 0.999830 -0.017558
vn -0.000000 0.999830 -0.018461
vn -0.005705 0.999830 -0.017558
vn -0.010851 0.999830 -0.014935
vn -0.014935 0.999830 -0.010851
vn -0.017558 0.999830 -0.005705
vn -0.018461 0.999830 0.000000
vn -0.017558 0.999830 0.005705
vn -0.014935 0.999830 0.010851
vn -0.010851 0.999830 0.014935
vn -0.005705 0.999830 0.017558
vn -0.000000 0.999830 0.018461
vn 0.005705 0.999830 0.017558
vn 0.010851 0.999830 0.014935
vn 0.014935 0.999830 0.010851
vn 0.017558 0.999830 0.005705
vn 0.018461 0.999830 0.000000
vn 0.104294 0.984133 -0.143548
vn 0.054831 0.984132 -0.168751
vn 0.157894 0.859606 -0.485949
vn 0.300332 0.859607 -0.413373
vn 0.143548 0.984132 -0.104294
vn 0.413372 0.859607 -0.300333
vn 0.168751 0.984133 -0.054830
vn 0.485949 0.859606 -0.157894
vn 0.177435 0.984132 0.000000
vn 0.510957 0.859606 0.000001
vn 0.168751 0.984132 0.054831
vn 0.485949 0.859606 0.157894
vn 0.143548 0.984132 0.104294
vn 0.413373 0.859606 0.300333
vn 0.104294 0.984132 0.143548
vn 0.300333 0.859606 0.413373
vn 0.054831 0.984132 0.168751
vn 0.157894 0.859606 0.485949
vn 0.000000 0.984132 0.177435
vn -0.000000 0.859606 0.510957
vn -0.054830 0.984132 0.168751
vn -0.157894 0.859606 0.485949
vn -0.104294 0.984132 0.143548
vn -0.300333 0.859606 0.413373
vn -0.143548 0.984132 0.104294
vn -0.413373 0.859606 0.300333
vn -0.168751 0.984132 0.054831
vn -0.485949 0.859606 0.157895
vn -0.177435 0.984132 0.000000
vn -0.510957 0.859606 -0.000000
vn -0.168751 0.984132 -0.054831
vn -0.485949 0.859606 -0.157894
vn -0.143548 0.984132 -0.104294
vn -0.413373 0.859606 -0.300333
vn -0.104294 0.984132 -0.143548
vn -0.300333 0.859606 -0.413373
vn -0.054831 0.984132 -0.168751
vn -0.157894 0.859606 -0.485949
vn 0.000000 0.984133 -0.177435
vn -0.000000 0.859606 -0.510957
vn 0.337156 0.819133 -0.464056
vn 0.177253 0.819133 -0.545530
vn 0.464055 0.819133 -0.337156
vn 0.545530 0.819133 -0.177253
vn 0.573604 0.819133 0.000001
vn 0.545530 0.819133 0.177254
vn 0.464056 0.819133 0.337156
vn 0.337156 0.819133 0.464056
vn 0.177253 0.819133 0.545530
vn 0.000000 0.819133 0.573604
vn -0.177253 0.819132 0.545530
vn -0.337156 0.819133 0.464056
vn -0.464056 0.819133 0.337156
vn -0.545530 0.819132 0.177253
vn -0.573604 0.819132 0.000000
vn -0.545530 0.819133 -0.177253
vn -0.464056 0.819132 -0.337156
vn -0.337156 0.819133 -0.464056
vn -0.177254 0.819133 -0.545530
vn 0.000000 0.819133 -0.573604
vn 0.486886 -0.560224 -0.670142
vn 0.255971 -0.560225 -0.787799
vn 0.670142 -0.560224 -0.486887
vn 0.787799 -0.560225 -0.255970
vn 0.828341 -0.560225 0.000001
vn 0.787799 -0.560224 0.255971
vn 0.670142 -0.560224 0.486887
vn 0.486887 -0.560224 0.670142
vn 0.255971 -0.560225 0.787799
vn 0.000000 -0.560225 0.828341
vn -0.255971 -0.560225 0.787799
vn -0.486887 -0.560224 0.670142
vn -0.670142 -0.560224 0.486887
vn -0.787799 -0.560224 0.255971
vn -0.828341 -0.560224 0.000000
vn -0.787799 -0.560224 -0.255971
vn -0.670142 -0.560224 -0.486886
vn -0.486887 -0.560224 -0.670142
vn -0.255971 -0.560225 -0.787799
vn 0.000000 -0.560225 -0.828341
vn 0.368378 -0.779243 -0.507029
vn 0.193667 -0.779243 -0.596048
vn 0.507028 -0.779243 -0.368378
vn 0.596048 -0.779243 -0.193667
vn 0.626722 -0.779243 0.000001
vn 0.596048 -0.779243 0.193668
vn 0.507029 -0.779243 0.368378
vn 0.368378 -0.779243 0.507028
vn 0.193668 -0.779243 0.596048
vn 0.000000 -0.779243 0.626722
vn -0.193667 -0.779243 0.596048
vn -0.368378 -0.779243 0.507028
vn -0.507029 -0.779243 0.368378
vn -0.596048 -0.779243 0.193668
vn -0.626722 -0.779243 -0.000000
vn -0.596048 -0.779243 -0.193668
vn -0.507029 -0.779243 -0.368378
vn -0.368378 -0.779243 -0.507028
vn -0.193668 -0.779243 -0.596048
vn -0.000000 -0.779243 -0.626722
s 1
g pCylinder1
usemtl initialShadingGroup
f 1/44/1 2/43/2 125/46/3 126/47/4
f 2/43/2 3/49/5 124/50/6 125/46/3
f 3/49/5 4/55/7 123/56/8 124/50/6
f 4/55/7 5/61/9 142/62/10 123/56/8
f 5/61/9 6/67/11 141/68/12 142/62/10
f 6/67/11 7/75/13 140/76/14 141/68/12
f 7/75/13 8/82/15 139/83/16 140/76/14
f 8/82/15 9/89/17 138/90/18 139/83/16
f 9/89/17 10/98/19 137/99/20 138/90/18
f 10/98/19 11/105/21 136/106/22 137/99/20
f 11/105/21 12/104/23 135/110/24 136/106/22
f 12/104/23 13/97/25 134/103/26 135/110/24
f 13/97/25 14/88/27 133/96/28 134/103/26
f 14/88/27 15/81/29 132/87/30 133/96/28
f 15/81/29 16/74/31 131/80/32 132/87/30
f 16/74/31 17/66/33 130/73/34 131/80/32
f 17/66/33 18/60/35 129/65/36 130/73/34
f 18/60/35 19/54/37 128/59/38 129/65/36
f 19/54/37 20/48/39 127/53/40 128/59/38
f 20/48/39 1/44/1 126/47/4 127/53/40
s 2
f 2/43/41 1/44/42 41/45/43
f 3/49/44 2/43/41 41/45/43
f 4/55/45 3/49/44 41/45/43
f 5/61/46 4/55/45 41/45/43
f 6/67/47 5/61/46 41/45/43
f 7/75/48 6/67/47 41/45/43
f 8/82/49 7/75/48 41/45/43
f 9/89/50 8/82/49 41/45/43
f 10/98/51 9/89/50 41/45/43
f 11/105/52 10/98/51 41/45/43
f 12/104/53 11/105/52 41/45/43
f 13/97/54 12/104/53 41/45/43
f 14/88/55 13/97/54 41/45/43
f 15/81/56 14/88/55 41/45/43
f 16/74/57 15/81/56 41/45/43
f 17/66/58 16/74/57 41/45/43
f 18/60/59 17/66/58 41/45/43
f 19/54/60 18/60/59 41/45/43
f 20/48/61 19/54/60 41/45/43
f 1/44/42 20/48/61 41/45/43
s 3
f 21/114/62 22/115/63 42/116/64
f 22/115/63 23/119/65 42/116/64
f 23/119/65 24/125/66 42/116/64
f 24/125/66 25/131/67 42/116/64
f 25/131/67 26/137/68 42/116/64
f 26/137/68 27/143/69 42/116/64
f 27/143/69 28/149/70 42/116/64
f 28/149/70 29/155/71 42/116/64
f 29/155/71 30/161/72 42/116/64
f 30/161/72 31/167/73 42/116/64
f 31/167/73 32/168/74 42/116/64
f 32/168/74 33/162/75 42/116/64
f 33/162/75 34/156/76 42/116/64
f 34/156/76 35/150/77 42/116/64
f 35/150/77 36/144/78 42/116/64
f 36/144/78 37/138/79 42/116/64
f 37/138/79 38/132/80 42/116/64
f 38/132/80 39/126/81 42/116/64
f 39/126/81 40/120/82 42/116/64
f 40/120/82 21/114/62 42/116/64
s 1
f 44/123/83 43/129/84 24/125/85 23/119/86
f 45/118/87 44/123/83 23/119/86 22/115/88
f 46/117/89 45/118/87 22/115/88 21/114/90
f 47/124/91 46/117/89 21/114/90 40/120/92
f 48/130/93 47/124/91 40/120/92 39/126/94
f 49/136/95 48/130/93 39/126/94 38/132/96
f 50/142/97 49/136/95 38/132/96 37/138/98
f 51/148/99 50/142/97 37/138/98 36/144/100
f 52/154/101 51/148/99 36/144/100 35/150/102
f 53/160/103 52/154/101 35/150/102 34/156/104
f 54/166/105 53/160/103 34/156/104 33/162/106
f 55/172/107 54/166/105 33/162/106 32/168/108
f 56/171/109 55/172/107 32/168/108 31/167/110
f 57/165/111 56/171/109 31/167/110 30/161/112
f 58/159/113 57/165/111 30/161/112 29/155/114
f 59/153/115 58/159/113 29/155/114 28/149/116
f 60/147/117 59/153/115 28/149/116 27/143/118
f 61/141/119 60/147/117 27/143/118 26/137/120
f 62/135/121 61/141/119 26/137/120 25/131/122
f 43/129/84 62/135/121 25/131/122 24/125/85
f 64/127/123 63/133/124 43/129/84 44/123/83
f 65/122/125 64/127/123 44/123/83 45/118/87
f 66/121/126 65/122/125 45/118/87 46/117/89
f 67/128/127 66/121/126 46/117/89 47/124/91
f 68/134/128 67/128/127 47/124/91 48/130/93
f 69/140/129 68/134/128 48/130/93 49/136/95
f 70/146/130 69/140/129 49/136/95 50/142/97
f 71/152/131 70/146/130 50/142/97 51/148/99
f 72/158/132 71/152/131 51/148/99 52/154/101
f 73/164/133 72/158/132 52/154/101 53/160/103
f 74/170/134 73/164/133 53/160/103 54/166/105
f 75/174/135 74/170/134 54/166/105 55/172/107
f 76/173/136 75/174/135 55/172/107 56/171/109
f 77/169/137 76/173/136 56/171/109 57/165/111
f 78/163/138 77/169/137 57/165/111 58/159/113
f 79/157/139 78/163/138 58/159/113 59/153/115
f 80/151/140 79/157/139 59/153/115 60/147/117
f 81/145/141 80/151/140 60/147/117 61/141/119
f 82/139/142 81/145/141 61/141/119 62/135/121
f 63/133/124 82/139/142 62/135/121 43/129/84
f 84/175/143 83/176/144 63/177/124 64/178/123
f 85/2/145 84/7/143 64/8/123 65/3/125
f 86/1/146 85/2/145 65/3/125 66/4/126
f 87/9/147 86/1/146 66/4/126 67/10/127
f 88/13/148 87/9/147 67/10/127 68/14/128
f 89/16/149 88/13/148 68/14/128 69/17/129
f 90/19/150 89/16/149 69/17/129 70/20/130
f 91/185/151 90/186/150 70/187/130 71/188/131
f 92/189/152 91/185/151 71/188/131 72/190/132
f 93/191/153 92/189/152 72/190/132 73/192/133
f 94/193/154 93/191/153 73/192/133 74/194/134
f 95/23/155 94/28/154 74/29/134 75/24/135
f 96/22/156 95/23/155 75/24/135 76/25/136
f 97/30/157 96/22/156 76/25/136 77/31/137
f 98/34/158 97/30/157 77/31/137 78/35/138
f 99/37/159 98/34/158 78/35/138 79/38/139
f 100/40/160 99/37/159 79/38/139 80/41/140
f 101/181/161 100/183/160 80/184/140 81/182/141
f 102/179/162 101/181/161 81/182/141 82/180/142
f 83/176/144 102/179/162 82/180/142 63/177/124
f 104/57/163 103/63/164 83/70/144 84/71/143
f 105/6/165 104/11/163 84/7/143 85/2/145
f 106/5/166 105/6/165 85/2/145 86/1/146
f 107/12/167 106/5/166 86/1/146 87/9/147
f 108/15/168 107/12/167 87/9/147 88/13/148
f 109/18/169 108/15/168 88/13/148 89/16/149
f 110/21/170 109/18/169 89/16/149 90/19/150
f 111/86/171 110/79/170 90/93/150 91/94/151
f 112/95/172 111/86/171 91/94/151 92/101/152
f 113/102/173 112/95/172 92/101/152 93/108/153
f 114/109/174 113/102/173 93/108/153 94/112/154
f 115/27/175 114/32/174 94/28/154 95/23/155
f 116/26/176 115/27/175 95/23/155 96/22/156
f 117/33/177 116/26/176 96/22/156 97/30/157
f 118/36/178 117/33/177 97/30/157 98/34/158
f 119/39/179 118/36/178 98/34/158 99/37/159
f 120/42/180 119/39/179 99/37/159 100/40/160
f 121/77/181 120/84/180 100/92/160 101/85/161
f 122/69/182 121/77/181 101/85/161 102/78/162
f 103/63/164 122/69/182 102/78/162 83/70/144
f 124/50/6 123/56/8 103/63/164 104/57/163
f 125/46/3 124/50/6 104/57/163 105/51/165
f 126/47/4 125/46/3 105/51/165 106/52/166
f 127/53/40 126/47/4 106/52/166 107/58/167
f 128/59/38 127/53/40 107/58/167 108/64/168
f 129/65/36 128/59/38 108/64/168 109/72/169
f 130/73/34 129/65/36 109/72/169 110/79/170
f 131/80/32 130/73/34 110/79/170 111/86/171
f 132/87/30 131/80/32 111/86/171 112/95/172
f 133/96/28 132/87/30 112/95/172 113/102/173
f 134/103/26 133/96/28 113/102/173 114/109/174
f 135/110/24 134/103/26 114/109/174 115/113/175
f 136/106/22 135/110/24 115/113/175 116/111/176
f 137/99/20 136/106/22 116/111/176 117/107/177
f 138/90/18 137/99/20 117/107/177 118/100/178
f 139/83/16 138/90/18 118/100/178 119/91/179
f 140/76/14 139/83/16 119/91/179 120/84/180
f 141/68/12 140/76/14 120/84/180 121/77/181
f 142/62/10 141/68/12 121/77/181 122/69/182
f 123/56/8 142/62/10 122/69/182 103/63/164
