# Blender 3.6.0
# www.blender.org
mtllib Heart1.mtl
o Cube
v 0.070346 0.472526 -0.405256
v 0.031772 -0.442903 -0.148678
v 0.070346 0.472526 0.405256
v 0.031772 -0.442903 0.148678
v -0.070346 0.472526 -0.405256
v -0.031772 -0.442903 -0.148678
v -0.070346 0.472526 0.405256
v -0.031772 -0.442903 0.148678
v -0.029597 -0.484297 0.000000
v 0.074864 0.368318 0.000000
v -0.074864 0.368318 0.000000
v 0.029597 -0.484297 0.000000
v -0.029597 -0.474868 0.069989
v 0.074864 0.471450 0.198088
v -0.074864 0.471450 0.198088
v 0.029597 -0.474868 0.069989
v -0.074864 0.471450 -0.198088
v 0.029597 -0.474868 -0.069989
v -0.029597 -0.474868 -0.069989
v 0.074864 0.471450 -0.198088
v 0.104447 0.246917 -0.529598
v -0.104447 0.246917 0.529598
v 0.104447 0.246917 0.529598
v -0.104447 0.246917 -0.529598
v 0.139386 0.230337 0.000000
v -0.139386 0.230337 0.000000
v -0.139386 0.248299 0.278773
v 0.139386 0.248299 0.278773
v 0.139386 0.248299 -0.278773
v -0.139386 0.248299 -0.278773
v 0.086688 -0.111298 -0.434473
v 0.086688 -0.111298 0.434473
v -0.086688 -0.111298 -0.434473
v 0.115928 -0.115657 0.000000
v -0.115928 -0.115657 0.000000
v -0.115928 -0.114229 0.231856
v 0.115928 -0.114229 0.231856
v 0.115928 -0.114229 -0.231856
v -0.115928 -0.114229 -0.231856
v -0.086688 -0.111298 0.434473
v -0.029597 -0.465309 0.104984
v 0.000000 -0.457177 -0.134582
v 0.056718 -0.305874 -0.278828
v -0.091080 0.385967 0.474152
v 0.056718 -0.305874 0.278828
v -0.056718 -0.305874 -0.278828
v 0.000000 0.481744 0.407308
v 0.074864 0.485578 0.313039
v 0.000000 -0.457177 0.134582
v -0.074864 0.485578 -0.313039
v 0.000000 0.481744 -0.407308
v 0.029597 -0.465309 -0.104984
v -0.029597 -0.481762 -0.034995
v 0.074864 0.422988 -0.095548
v -0.074864 0.422988 0.095548
v 0.029597 -0.481762 0.034995
v 0.074037 -0.321613 0.000000
v 0.000000 -0.534409 0.000000
v -0.074037 -0.321613 0.000000
v 0.000000 0.380772 0.000000
v -0.029597 -0.481762 0.034995
v 0.074864 0.422988 0.095548
v -0.074864 0.485578 0.313039
v 0.029597 -0.465309 0.104984
v -0.074037 -0.316185 0.148073
v 0.074037 -0.316185 0.148073
v 0.000000 -0.523552 0.046147
v 0.000000 0.501866 0.183832
v -0.074864 0.422988 -0.095548
v 0.029597 -0.481762 -0.034995
v -0.029597 -0.465309 -0.104984
v 0.074864 0.485578 -0.313039
v 0.000000 0.501866 -0.183832
v 0.000000 -0.523552 -0.046147
v 0.074037 -0.316185 -0.148073
v -0.074037 -0.316185 -0.148073
v 0.091080 0.385967 -0.474152
v -0.105092 0.076169 0.516638
v 0.091080 0.385967 0.474152
v -0.091080 0.385967 -0.474152
v 0.118892 0.332358 0.000000
v -0.118892 0.332358 0.000000
v -0.118892 0.381510 0.241280
v 0.118892 0.381510 0.241280
v 0.118892 0.381510 -0.241280
v -0.118892 0.381510 -0.241280
v -0.139386 0.239318 -0.139386
v 0.139386 0.247608 -0.421655
v 0.139386 0.239318 0.139386
v -0.139386 0.247608 0.421655
v -0.139386 0.239318 0.139386
v 0.139386 0.239318 -0.139386
v 0.000000 0.246917 -0.564538
v 0.139386 0.247608 0.421655
v -0.139386 0.247608 -0.421655
v 0.000000 0.246917 0.564538
v 0.105092 0.076169 -0.516638
v 0.105092 0.076169 0.516638
v -0.105092 0.076169 -0.516638
v 0.137182 0.076169 0.000000
v -0.137182 0.076169 0.000000
v -0.137182 0.076169 0.274364
v 0.137182 0.076169 0.274364
v 0.137182 0.076169 -0.274364
v -0.137182 0.076169 -0.274364
v -0.056718 -0.305874 0.278828
v 0.000000 -0.111298 0.463713
v -0.115928 -0.112763 -0.347785
v 0.115928 -0.112763 0.347785
v 0.000000 -0.111298 -0.463713
v 0.115928 -0.114943 -0.115928
v -0.115928 -0.114943 0.115928
v -0.115928 -0.112763 0.347785
v 0.115928 -0.114943 0.115928
v 0.115928 -0.112763 -0.347785
v -0.115928 -0.114943 -0.115928
v -0.074037 -0.319989 -0.074037
v 0.074037 -0.310672 -0.222110
v 0.074037 -0.319989 0.074037
v -0.074037 -0.310672 0.222110
v -0.074037 -0.319989 0.074037
v 0.074037 -0.319989 -0.074037
v 0.000000 -0.304409 -0.296147
v 0.074037 -0.310672 0.222110
v -0.074037 -0.310672 -0.222110
v 0.000000 -0.304409 0.296147
v 0.000000 0.076169 0.548728
v -0.137182 0.076169 -0.411546
v 0.137182 0.076169 0.411546
v 0.000000 0.076169 -0.548728
v 0.137182 0.076169 -0.137182
v -0.137182 0.076169 0.137182
v -0.137182 0.076169 0.411546
v 0.137182 0.076169 0.137182
v 0.137182 0.076169 -0.411546
v -0.137182 0.076169 -0.137182
v -0.118892 0.352789 -0.118892
v 0.118892 0.388229 -0.371622
v 0.000000 -0.512527 -0.069220
v 0.000000 0.515303 -0.295151
v 0.000000 0.444423 0.088420
v 0.000000 -0.531159 0.023073
v 0.118892 0.352789 0.118892
v -0.118892 0.388229 0.371622
v 0.000000 0.444423 -0.088420
v -0.118892 0.352789 0.118892
v 0.000000 -0.531159 -0.023073
v 0.118892 0.352789 -0.118892
v 0.000000 0.385276 -0.505460
v 0.118892 0.388229 0.371622
v 0.000000 -0.512527 0.069220
v -0.118892 0.388229 -0.371622
v 0.000000 0.385276 0.505460
v 0.000000 0.515303 0.295151
vn -0.0000 0.9996 0.0300
vn -0.6491 0.7581 0.0626
vn -0.5394 0.7373 0.4068
vn -0.0000 0.8698 0.4934
vn -0.0000 0.5321 0.8467
vn -0.6425 0.4715 0.6040
vn -0.9459 0.3057 -0.1091
vn -0.6491 0.7581 -0.0626
vn -0.5394 0.7373 -0.4068
vn -0.6425 0.4715 -0.6040
vn -0.0000 -0.9197 0.3925
vn 0.7421 -0.5934 0.3119
vn 0.5626 -0.6486 0.5127
vn -0.0000 -0.7857 0.6186
vn 0.9459 0.3057 0.1091
vn 0.6491 0.7581 0.0626
vn 0.5394 0.7373 0.4068
vn 0.6425 0.4715 0.6040
vn -0.0000 0.5321 -0.8467
vn -0.0000 0.8698 -0.4934
vn 0.5394 0.7373 -0.4068
vn 0.6425 0.4715 -0.6040
vn 0.9335 0.3443 0.0999
vn 0.5966 0.7180 0.3587
vn 0.6033 0.7975 -0.0000
vn 0.9218 0.3876 -0.0000
vn -0.0000 -0.9879 -0.1550
vn 0.9091 -0.4119 -0.0618
vn 0.9167 -0.3995 -0.0000
vn -0.0000 -1.0000 -0.0000
vn -0.9335 0.3443 -0.0999
vn -0.5966 0.7180 -0.3587
vn -0.6033 0.7975 -0.0000
vn -0.9218 0.3876 -0.0000
vn -0.0000 0.8626 0.5058
vn -0.5966 0.7180 0.3587
vn -0.0000 1.0000 -0.0000
vn -0.9459 0.3057 0.1091
vn -0.6679 0.7155 -0.2051
vn -0.9539 0.2960 -0.0501
vn 0.9335 0.3443 -0.0999
vn 0.5966 0.7180 -0.3587
vn 0.6679 0.7155 -0.2051
vn 0.9539 0.2960 -0.0501
vn -0.0000 -0.9879 0.1550
vn 0.9091 -0.4119 0.0618
vn 0.8873 -0.4468 0.1145
vn -0.0000 -0.9630 0.2694
vn -0.0000 0.8626 -0.5058
vn -0.0000 0.9513 -0.3082
vn -0.0000 0.9996 -0.0300
vn -0.6679 0.7155 0.2051
vn -0.0000 0.9513 0.3082
vn -0.0000 -0.9197 -0.3925
vn 0.7421 -0.5934 -0.3119
vn 0.8873 -0.4468 -0.1145
vn -0.0000 -0.9630 -0.2694
vn 0.9459 0.3057 -0.1091
vn 0.6491 0.7581 -0.0626
vn 0.6679 0.7155 0.2051
vn 0.9539 0.2960 0.0501
vn -0.9335 0.3443 0.0999
vn -0.9539 0.2960 0.0501
vn -0.9981 -0.0621 -0.0004
vn -0.9968 0.0790 0.0108
vn -0.9974 0.0715 0.0058
vn -0.9981 -0.0622 -0.0004
vn 0.9817 -0.0964 -0.1641
vn 0.9826 0.0864 -0.1642
vn 0.9974 0.0715 0.0058
vn 0.9981 -0.0622 -0.0004
vn 0.9981 -0.0621 0.0004
vn 0.9968 0.0790 -0.0108
vn 0.9974 0.0715 -0.0058
vn 0.9981 -0.0622 0.0004
vn -0.9817 -0.0964 0.1641
vn -0.9826 0.0864 0.1642
vn -0.9974 0.0715 -0.0058
vn -0.9981 -0.0622 0.0004
vn -0.9981 -0.0621 0.0004
vn -0.9968 0.0790 -0.0108
vn -0.9966 0.0819 -0.0000
vn -0.9981 -0.0622 -0.0000
vn 0.9981 -0.0621 -0.0004
vn 0.9968 0.0790 0.0108
vn 0.9966 0.0819 -0.0000
vn 0.9981 -0.0622 -0.0000
vn -0.0000 -0.2475 -0.9689
vn -0.0000 0.1527 -0.9883
vn 0.6833 0.1369 -0.7172
vn 0.6820 -0.2016 -0.7031
vn 0.9817 -0.0964 0.1641
vn 0.9826 0.0864 0.1642
vn 0.6833 0.1369 0.7172
vn 0.6820 -0.2016 0.7031
vn -0.9817 -0.0964 -0.1641
vn -0.9826 0.0864 -0.1642
vn -0.6833 0.1369 -0.7172
vn -0.6820 -0.2016 -0.7031
vn -0.0000 -0.2475 0.9689
vn -0.0000 0.1527 0.9883
vn -0.6833 0.1369 0.7172
vn -0.6820 -0.2016 0.7031
vn -0.0000 -0.6795 0.7337
vn -0.0000 -0.5279 0.8493
vn -0.6363 -0.4480 0.6280
vn -0.5813 -0.5914 0.5589
vn -0.9349 -0.3242 -0.1442
vn -0.9569 -0.2393 -0.1646
vn -0.6363 -0.4480 -0.6280
vn -0.5813 -0.5914 -0.5589
vn 0.9349 -0.3242 0.1442
vn 0.9569 -0.2393 0.1646
vn 0.6363 -0.4480 0.6280
vn 0.5813 -0.5914 0.5589
vn -0.0000 -0.6795 -0.7337
vn -0.0000 -0.5279 -0.8493
vn 0.6363 -0.4480 -0.6280
vn 0.5813 -0.5914 -0.5589
vn 0.9714 -0.2370 -0.0118
vn 0.9877 -0.1563 -0.0021
vn 0.9878 -0.1555 -0.0000
vn 0.9724 -0.2332 -0.0000
vn -0.9714 -0.2370 0.0118
vn -0.9877 -0.1563 0.0021
vn -0.9878 -0.1555 -0.0000
vn -0.9724 -0.2332 -0.0000
vn -0.9349 -0.3242 0.1442
vn -0.9569 -0.2393 0.1646
vn -0.9872 -0.1592 0.0035
vn -0.9686 -0.2479 0.0212
vn 0.9714 -0.2370 0.0118
vn 0.9877 -0.1563 0.0021
vn 0.9872 -0.1592 0.0035
vn 0.9686 -0.2479 0.0212
vn 0.9349 -0.3242 -0.1442
vn 0.9569 -0.2393 -0.1646
vn 0.9872 -0.1592 -0.0035
vn 0.9686 -0.2479 -0.0212
vn -0.9714 -0.2370 -0.0118
vn -0.9877 -0.1563 -0.0021
vn -0.9872 -0.1592 -0.0035
vn -0.9686 -0.2479 -0.0212
vn -0.9091 -0.4119 -0.0618
vn -0.8873 -0.4468 -0.1145
vn -0.9167 -0.3995 -0.0000
vn 0.5626 -0.6486 -0.5127
vn -0.7421 -0.5934 0.3119
vn -0.8873 -0.4468 0.1145
vn -0.5626 -0.6486 0.5127
vn -0.9091 -0.4119 0.0618
vn -0.0000 -0.7857 -0.6186
vn -0.5626 -0.6486 -0.5127
vn -0.7421 -0.5934 -0.3119
vt 0.750000 0.718750
vt 0.875000 0.718750
vt 0.875000 0.750000
vt 0.750000 0.750000
vt 0.597796 0.875000
vt 0.625000 0.875000
vt 0.625000 1.000000
vt 0.597796 1.000000
vt 0.597796 0.218750
vt 0.625000 0.218750
vt 0.625000 0.250000
vt 0.597796 0.250000
vt 0.250000 0.718750
vt 0.375000 0.718750
vt 0.375000 0.750000
vt 0.250000 0.750000
vt 0.597796 0.718750
vt 0.625000 0.718750
vt 0.625000 0.750000
vt 0.597796 0.750000
vt 0.597796 0.375000
vt 0.625000 0.375000
vt 0.625000 0.500000
vt 0.597796 0.500000
vt 0.597796 0.593750
vt 0.625000 0.593750
vt 0.625000 0.625000
vt 0.597796 0.625000
vt 0.250000 0.593750
vt 0.375000 0.593750
vt 0.375000 0.625000
vt 0.250000 0.625000
vt 0.597796 0.093750
vt 0.625000 0.093750
vt 0.625000 0.125000
vt 0.597796 0.125000
vt 0.750000 0.593750
vt 0.875000 0.593750
vt 0.875000 0.625000
vt 0.750000 0.625000
vt 0.597796 0.031250
vt 0.625000 0.031250
vt 0.625000 0.062500
vt 0.597796 0.062500
vt 0.597796 0.656250
vt 0.625000 0.656250
vt 0.625000 0.687500
vt 0.597796 0.687500
vt 0.250000 0.656250
vt 0.375000 0.656250
vt 0.375000 0.687500
vt 0.250000 0.687500
vt 0.750000 0.656250
vt 0.875000 0.656250
vt 0.875000 0.687500
vt 0.750000 0.687500
vt 0.750000 0.531250
vt 0.875000 0.531250
vt 0.875000 0.562500
vt 0.750000 0.562500
vt 0.250000 0.531250
vt 0.375000 0.531250
vt 0.375000 0.562500
vt 0.250000 0.562500
vt 0.597796 0.531250
vt 0.625000 0.531250
vt 0.625000 0.562500
vt 0.597796 0.562500
vt 0.597796 0.156250
vt 0.625000 0.156250
vt 0.625000 0.187500
vt 0.597796 0.187500
vt 0.521693 0.156250
vt 0.570591 0.156250
vt 0.570591 0.187500
vt 0.521693 0.187500
vt 0.521693 0.531250
vt 0.570591 0.531250
vt 0.570591 0.562500
vt 0.521693 0.562500
vt 0.521693 0.656250
vt 0.570591 0.656250
vt 0.570591 0.687500
vt 0.521693 0.687500
vt 0.521693 0.031250
vt 0.570591 0.031250
vt 0.570591 0.062500
vt 0.521693 0.062500
vt 0.521693 0.093750
vt 0.570591 0.093750
vt 0.570591 0.125000
vt 0.521693 0.125000
vt 0.521693 0.593750
vt 0.570591 0.593750
vt 0.570591 0.625000
vt 0.521693 0.625000
vt 0.521693 0.375000
vt 0.570591 0.375000
vt 0.570591 0.500000
vt 0.521693 0.500000
vt 0.521693 0.718750
vt 0.570591 0.718750
vt 0.570591 0.750000
vt 0.521693 0.750000
vt 0.521693 0.218750
vt 0.570591 0.218750
vt 0.570591 0.250000
vt 0.521693 0.250000
vt 0.521693 0.875000
vt 0.570591 0.875000
vt 0.570591 1.000000
vt 0.521693 1.000000
vt 0.423898 0.875000
vt 0.472796 0.875000
vt 0.472796 1.000000
vt 0.423898 1.000000
vt 0.423898 0.218750
vt 0.472796 0.218750
vt 0.472796 0.250000
vt 0.423898 0.250000
vt 0.423898 0.718750
vt 0.472796 0.718750
vt 0.472796 0.750000
vt 0.423898 0.750000
vt 0.423898 0.375000
vt 0.472796 0.375000
vt 0.472796 0.500000
vt 0.423898 0.500000
vt 0.423898 0.593750
vt 0.472796 0.593750
vt 0.472796 0.625000
vt 0.423898 0.625000
vt 0.423898 0.093750
vt 0.472796 0.093750
vt 0.472796 0.125000
vt 0.423898 0.125000
vt 0.423898 0.031250
vt 0.472796 0.031250
vt 0.472796 0.062500
vt 0.423898 0.062500
vt 0.423898 0.656250
vt 0.472796 0.656250
vt 0.472796 0.687500
vt 0.423898 0.687500
vt 0.423898 0.531250
vt 0.472796 0.531250
vt 0.472796 0.562500
vt 0.423898 0.562500
vt 0.423898 0.156250
vt 0.472796 0.156250
vt 0.472796 0.187500
vt 0.423898 0.187500
vt 0.375000 0.156250
vt 0.375000 0.187500
vt 0.375000 0.125000
vt 0.375000 0.500000
vt 0.375000 0.031250
vt 0.375000 0.062500
vt 0.375000 0.000000
vt 0.423898 0.000000
vt 0.472796 0.000000
vt 0.375000 0.093750
vt 0.375000 0.375000
vt 0.375000 0.250000
vt 0.375000 0.218750
vt 0.375000 0.875000
vt 0.375000 1.000000
vt 0.521693 0.000000
vt 0.570591 0.000000
vt 0.125000 0.531250
vt 0.125000 0.562500
vt 0.125000 0.500000
vt 0.250000 0.500000
vt 0.750000 0.500000
vt 0.875000 0.500000
vt 0.125000 0.656250
vt 0.125000 0.687500
vt 0.125000 0.625000
vt 0.597796 0.000000
vt 0.625000 0.000000
vt 0.125000 0.593750
vt 0.125000 0.718750
vt 0.125000 0.750000
s 1
usemtl Material
f 154/1/1 63/2/2 7/3/3 47/4/4
f 153/5/5 47/6/4 7/7/3 44/8/6
f 152/9/7 50/10/8 5/11/9 80/12/10
f 151/13/11 64/14/12 4/15/13 49/16/14
f 150/17/15 48/18/16 3/19/17 79/20/18
f 149/21/19 51/22/20 1/23/21 77/24/22
f 148/25/23 54/26/24 10/27/25 81/28/26
f 147/29/27 70/30/28 12/31/29 58/32/30
f 146/33/31 55/34/32 11/35/33 82/36/34
f 145/37/35 69/38/36 11/39/33 60/40/37
f 144/41/38 63/42/2 15/43/39 83/44/40
f 143/45/41 62/46/42 14/47/43 84/48/44
f 142/49/45 56/50/46 16/51/47 67/52/48
f 141/53/49 55/54/32 15/55/39 68/56/50
f 140/57/51 50/58/8 17/59/52 73/60/53
f 139/61/54 52/62/55 18/63/56 74/64/57
f 138/65/58 72/66/59 20/67/60 85/68/61
f 137/69/62 69/70/36 17/71/52 86/72/63
f 136/73/64 87/74/65 30/75/66 105/76/67
f 135/77/68 88/78/69 29/79/70 104/80/71
f 134/81/72 89/82/73 28/83/74 103/84/75
f 133/85/76 90/86/77 27/87/78 102/88/79
f 132/89/80 91/90/81 26/91/82 101/92/83
f 131/93/84 92/94/85 25/95/86 100/96/87
f 130/97/88 93/98/89 21/99/90 97/100/91
f 129/101/92 94/102/93 23/103/94 98/104/95
f 128/105/96 95/106/97 24/107/98 99/108/99
f 127/109/100 96/110/101 22/111/102 78/112/103
f 126/113/104 107/114/105 40/115/106 106/116/107
f 125/117/108 108/118/109 33/119/110 46/120/111
f 124/121/112 109/122/113 32/123/114 45/124/115
f 123/125/116 110/126/117 31/127/118 43/128/119
f 122/129/120 111/130/121 34/131/122 57/132/123
f 121/133/124 112/134/125 35/135/126 59/136/127
f 120/137/128 113/138/129 36/139/130 65/140/131
f 119/141/132 114/142/133 37/143/134 66/144/135
f 118/145/136 115/146/137 38/147/138 75/148/139
f 117/149/140 116/150/141 39/151/142 76/152/143
f 53/153/144 117/149/140 76/152/143 19/154/145
f 9/155/146 59/136/127 117/149/140 53/153/144
f 59/136/127 35/135/126 116/150/141 117/149/140
f 52/62/55 118/145/136 75/148/139 18/63/56
f 2/156/147 43/128/119 118/145/136 52/62/55
f 43/128/119 31/127/118 115/146/137 118/145/136
f 56/50/46 119/141/132 66/144/135 16/51/47
f 12/31/29 57/132/123 119/141/132 56/50/46
f 57/132/123 34/131/122 114/142/133 119/141/132
f 41/157/148 120/137/128 65/140/131 13/158/149
f 8/159/150 106/160/107 120/137/128 41/157/148
f 106/160/107 40/161/106 113/138/129 120/137/128
f 61/162/151 121/133/124 59/136/127 9/155/146
f 13/158/149 65/140/131 121/133/124 61/162/151
f 65/140/131 36/139/130 112/134/125 121/133/124
f 70/30/28 122/129/120 57/132/123 12/31/29
f 18/63/56 75/148/139 122/129/120 70/30/28
f 75/148/139 38/147/138 111/130/121 122/129/120
f 42/163/152 123/125/116 43/128/119 2/156/147
f 6/164/153 46/120/111 123/125/116 42/163/152
f 46/120/111 33/119/110 110/126/117 123/125/116
f 64/14/12 124/121/112 45/124/115 4/15/13
f 16/51/47 66/144/135 124/121/112 64/14/12
f 66/144/135 37/143/134 109/122/113 124/121/112
f 71/165/154 125/117/108 46/120/111 6/164/153
f 19/154/145 76/152/143 125/117/108 71/165/154
f 76/152/143 39/151/142 108/118/109 125/117/108
f 49/166/14 126/113/104 106/116/107 8/167/150
f 4/15/13 45/124/115 126/113/104 49/166/14
f 45/124/115 32/123/114 107/114/105 126/113/104
f 107/114/105 127/109/100 78/112/103 40/115/106
f 32/123/114 98/104/95 127/109/100 107/114/105
f 98/104/95 23/103/94 96/110/101 127/109/100
f 108/118/109 128/105/96 99/108/99 33/119/110
f 39/151/142 105/76/67 128/105/96 108/118/109
f 105/76/67 30/75/66 95/106/97 128/105/96
f 109/122/113 129/101/92 98/104/95 32/123/114
f 37/143/134 103/84/75 129/101/92 109/122/113
f 103/84/75 28/83/74 94/102/93 129/101/92
f 110/126/117 130/97/88 97/100/91 31/127/118
f 33/119/110 99/108/99 130/97/88 110/126/117
f 99/108/99 24/107/98 93/98/89 130/97/88
f 111/130/121 131/93/84 100/96/87 34/131/122
f 38/147/138 104/80/71 131/93/84 111/130/121
f 104/80/71 29/79/70 92/94/85 131/93/84
f 112/134/125 132/89/80 101/92/83 35/135/126
f 36/139/130 102/88/79 132/89/80 112/134/125
f 102/88/79 27/87/78 91/90/81 132/89/80
f 113/138/129 133/85/76 102/88/79 36/139/130
f 40/161/106 78/168/103 133/85/76 113/138/129
f 78/168/103 22/169/102 90/86/77 133/85/76
f 114/142/133 134/81/72 103/84/75 37/143/134
f 34/131/122 100/96/87 134/81/72 114/142/133
f 100/96/87 25/95/86 89/82/73 134/81/72
f 115/146/137 135/77/68 104/80/71 38/147/138
f 31/127/118 97/100/91 135/77/68 115/146/137
f 97/100/91 21/99/90 88/78/69 135/77/68
f 116/150/141 136/73/64 105/76/67 39/151/142
f 35/135/126 101/92/83 136/73/64 116/150/141
f 101/92/83 26/91/82 87/74/65 136/73/64
f 87/74/65 137/69/62 86/72/63 30/75/66
f 26/91/82 82/36/34 137/69/62 87/74/65
f 82/36/34 11/35/33 69/70/36 137/69/62
f 88/78/69 138/65/58 85/68/61 29/79/70
f 21/99/90 77/24/22 138/65/58 88/78/69
f 77/24/22 1/23/21 72/66/59 138/65/58
f 71/170/154 139/61/54 74/64/57 19/171/145
f 6/172/153 42/173/152 139/61/54 71/170/154
f 42/173/152 2/156/147 52/62/55 139/61/54
f 72/66/59 140/57/51 73/60/53 20/67/60
f 1/23/21 51/174/20 140/57/51 72/66/59
f 51/174/20 5/175/9 50/58/8 140/57/51
f 62/46/42 141/53/49 68/56/50 14/47/43
f 10/27/25 60/40/37 141/53/49 62/46/42
f 60/40/37 11/39/33 55/54/32 141/53/49
f 61/176/151 142/49/45 67/52/48 13/177/149
f 9/178/146 58/32/30 142/49/45 61/176/151
f 58/32/30 12/31/29 56/50/46 142/49/45
f 89/82/73 143/45/41 84/48/44 28/83/74
f 25/95/86 81/28/26 143/45/41 89/82/73
f 81/28/26 10/27/25 62/46/42 143/45/41
f 90/86/77 144/41/38 83/44/40 27/87/78
f 22/169/102 44/179/6 144/41/38 90/86/77
f 44/179/6 7/180/3 63/42/2 144/41/38
f 54/26/24 145/37/35 60/40/37 10/27/25
f 20/67/60 73/60/53 145/37/35 54/26/24
f 73/60/53 17/59/52 69/38/36 145/37/35
f 91/90/81 146/33/31 82/36/34 26/91/82
f 27/87/78 83/44/40 146/33/31 91/90/81
f 83/44/40 15/43/39 55/34/32 146/33/31
f 53/181/144 147/29/27 58/32/30 9/178/146
f 19/171/145 74/64/57 147/29/27 53/181/144
f 74/64/57 18/63/56 70/30/28 147/29/27
f 92/94/85 148/25/23 81/28/26 25/95/86
f 29/79/70 85/68/61 148/25/23 92/94/85
f 85/68/61 20/67/60 54/26/24 148/25/23
f 93/98/89 149/21/19 77/24/22 21/99/90
f 24/107/98 80/12/10 149/21/19 93/98/89
f 80/12/10 5/11/9 51/22/20 149/21/19
f 94/102/93 150/17/15 79/20/18 23/103/94
f 28/83/74 84/48/44 150/17/15 94/102/93
f 84/48/44 14/47/43 48/18/16 150/17/15
f 41/182/148 151/13/11 49/16/14 8/183/150
f 13/177/149 67/52/48 151/13/11 41/182/148
f 67/52/48 16/51/47 64/14/12 151/13/11
f 95/106/97 152/9/7 80/12/10 24/107/98
f 30/75/66 86/72/63 152/9/7 95/106/97
f 86/72/63 17/71/52 50/10/8 152/9/7
f 96/110/101 153/5/5 44/8/6 22/111/102
f 23/103/94 79/20/18 153/5/5 96/110/101
f 79/20/18 3/19/17 47/6/4 153/5/5
f 48/18/16 154/1/1 47/4/4 3/19/17
f 14/47/43 68/56/50 154/1/1 48/18/16
f 68/56/50 15/55/39 63/2/2 154/1/1
