# Blender 3.6.1
# www.blender.org
mtllib ReplenishStamina1.mtl
o Stamina
v 49.778091 -0.468095 0.546639
v 49.899712 -0.488751 0.233642
v 50.000385 0.065435 -0.483433
v 50.043209 -0.445065 -0.160058
v 50.122005 0.044779 -0.796431
v 50.187592 -0.520594 -0.486395
v 49.856888 0.021749 -0.089733
v 50.065739 -1.216530 0.438179
v 50.169125 -0.932631 -0.083361
v 49.712505 0.097279 0.236604
v 49.834362 0.793214 -0.687970
v 49.730972 0.509316 -0.166430
v 50.026466 -0.388298 0.639938
v 50.148087 -0.408954 0.326941
v 50.248760 0.145232 -0.390134
v 50.291584 -0.365268 -0.066759
v 50.370380 0.124576 -0.703131
v 50.435966 -0.440797 -0.393096
v 50.105263 0.101547 0.003566
v 50.314110 -1.136733 0.531478
v 50.417500 -0.852834 0.009938
v 49.960880 0.177076 0.329903
v 50.082737 0.873012 -0.594671
v 49.979347 0.589113 -0.073131
vn -0.8852 -0.2997 -0.3559
vn -0.8993 -0.2856 -0.3312
vn -0.8991 -0.2845 -0.3327
vn 0.8852 0.2997 0.3559
vn 0.8993 0.2856 0.3312
vn 0.8991 0.2845 0.3327
vn -0.4419 0.6373 0.6313
vn -0.4425 0.5414 0.7149
vn 0.3041 -0.9526 0.0051
vn 0.4078 -0.8335 -0.3728
vn -0.2473 0.9558 -0.1592
vn 0.4419 -0.6373 -0.6313
vn 0.2473 -0.9558 0.1592
vn -0.4078 0.8335 0.3728
vn -0.4315 0.3948 0.8111
vn 0.4425 -0.5414 -0.7149
vn 0.4315 -0.3948 -0.8111
vn -0.3041 0.9526 -0.0051
vt 0.000000 1.000000
vt 1.000000 1.000000
s 0
usemtl Material.001
f 3/1/1 4/2/1 2/1/1 7/2/1
f 3/1/2 5/1/2 6/2/2 4/2/2
f 10/2/3 12/2/3 11/2/3 7/2/3
f 2/1/2 1/1/2 10/2/2 7/2/2
f 6/2/3 9/2/3 8/2/3 4/2/3
f 15/1/4 19/2/4 14/1/4 16/2/4
f 15/1/5 16/2/5 18/2/5 17/1/5
f 22/2/6 19/2/6 23/2/6 24/2/6
f 14/1/5 19/2/5 22/2/5 13/1/5
f 18/2/6 16/2/6 20/2/6 21/2/6
f 12/2/7 10/2/7 22/2/7 24/2/7
f 4/2/8 8/2/8 20/2/8 16/2/8
f 2/1/9 4/2/9 16/2/9 14/1/9
f 8/2/10 9/2/10 21/2/10 20/2/10
f 5/1/11 3/1/11 15/1/11 17/1/11
f 9/2/12 6/2/12 18/2/12 21/2/12
f 1/1/13 2/1/13 14/1/13 13/1/13
f 11/2/14 12/2/14 24/2/14 23/2/14
f 10/2/15 1/1/15 13/1/15 22/2/15
f 7/2/16 11/2/16 23/2/16 19/2/16
f 6/2/17 5/1/17 17/1/17 18/2/17
f 3/1/18 7/2/18 19/2/18 15/1/18
