# This file uses centimeters as units for non-parametric coordinates.

mtllib Planks Platform.mtl
g default
v -1.869124 -0.055828 3.462954
v -1.335089 -0.055828 3.358156
v -0.801053 -0.055828 3.358156
v -0.267018 -0.055828 3.358156
v 0.267018 -0.055828 3.358156
v 0.801053 -0.055828 3.358156
v 1.335089 -0.055828 3.358156
v 1.869124 -0.055828 3.358156
v -1.869124 0.053167 3.462954
v -1.335089 0.053167 3.358156
v -0.801053 0.055828 3.358156
v -0.267018 0.055828 3.358156
v 0.267018 0.055828 3.358156
v 0.801053 0.055828 3.358156
v 1.335089 0.055828 3.358156
v -1.869124 0.053167 -3.248722
v -1.335089 0.053167 -3.358156
v -0.801053 0.055828 -3.358156
v -0.267018 0.055828 -3.358156
v 0.267018 0.055828 -3.358156
v 0.801053 0.055828 -3.358156
v 1.335089 0.055828 -3.358156
v -1.869124 -0.055828 -3.248722
v -1.335089 -0.055828 -3.358156
v -0.801053 -0.055828 -3.358156
v -0.267018 -0.055828 -3.358156
v 0.267018 -0.055828 -3.358156
v 0.801053 -0.055828 -3.358156
v 1.335089 -0.055828 -3.358156
v 1.869124 -0.055828 -3.358156
v -1.335089 0.091317 3.358156
v -0.801053 0.091317 3.358156
v -0.801053 0.091317 -3.358156
v -1.335089 0.091317 -3.358156
v -0.801053 0.026543 3.358156
v -0.267018 0.026543 3.358156
v -0.267018 0.026543 -3.358156
v -0.801053 0.026543 -3.358156
v 0.267018 0.071603 3.358156
v 0.801053 0.071603 3.358156
v 0.801053 0.071603 -3.358156
v 0.267018 0.071603 -3.358156
v 0.801053 0.103870 3.358156
v 1.335089 0.103870 3.358156
v 1.335089 0.103870 -3.358156
v 0.801053 0.103870 -3.358156
v 1.335089 0.039234 3.358156
v 1.869124 0.039234 3.358156
v 1.869124 0.039234 -3.358156
v 1.335089 0.039234 -3.358156
v -1.335089 0.053167 -3.580907
v -0.801053 0.055828 -3.515765
v -0.801053 -0.055828 -3.515765
v -1.335089 -0.055828 -3.580907
v -1.335089 0.091317 -3.580907
v -0.801053 0.091317 -3.515765
v -0.267018 0.055828 3.358156
v -0.267018 0.026543 3.358156
v -0.801053 0.026543 3.358156
v -0.801053 0.055828 3.358156
v -0.801053 -0.055828 3.358156
v -0.267018 -0.055828 3.358156
v -0.267018 -0.055828 3.660380
v 0.267018 -0.055828 3.584947
v 0.267018 0.055828 3.584947
v -0.267018 0.055828 3.660380
v -0.267018 0.055828 -3.737032
v 0.267018 0.055828 -3.567545
v 0.267018 -0.055828 -3.567545
v -0.267018 -0.055828 -3.737032
v 0.801053 -0.055828 3.535214
v 1.335089 -0.055828 3.535214
v 1.335089 0.055828 3.535214
v 0.801053 0.055828 3.535214
v 1.335089 0.103870 3.535214
v 0.801053 0.103870 3.535214
vt 0.723299 0.913280
vt 0.723299 0.672355
vt 0.958646 0.672355
vt 0.958646 0.913280
vt 0.751259 0.564628
vt 0.992350 0.564628
vt 0.992350 0.641259
vt 0.751259 0.641259
vt 0.751259 0.501396
vt 0.992350 0.501396
vt 0.998008 0.564628
vt 0.998008 0.641259
vt 0.992350 0.323537
vt 0.998008 0.323537
vt 0.504032 0.585988
vt 0.745124 0.585988
vt 0.745124 0.668363
vt 0.504032 0.668363
vt 0.496036 0.668363
vt 0.496036 0.585988
vt 0.504032 0.350642
vt 0.496036 0.350642
vt 0.310987 0.620173
vt 0.310987 0.861265
vt 0.247755 0.861265
vt 0.247755 0.620173
vt 0.317917 0.861265
vt 0.317917 0.620173
vt 0.351979 0.620173
vt 0.351979 0.861265
vt 0.358845 0.861265
vt 0.358845 0.620173
vt 0.392907 0.620173
vt 0.392907 0.861265
vt 0.160561 0.242915
vt 0.401652 0.242915
vt 0.401652 0.346650
vt 0.160561 0.346650
vt 0.160561 0.207086
vt 0.401652 0.207086
vt 0.154205 0.346650
vt 0.154205 0.242915
vt 0.160561 0.001823
vt 0.154205 0.001823
vt 0.409518 0.242915
vt 0.650609 0.242915
vt 0.650609 0.346650
vt 0.409518 0.346650
vt 0.656965 0.242915
vt 0.656965 0.346650
vt 0.650609 0.001823
vt 0.656965 0.001823
vt 0.605036 0.913446
vt 0.399773 0.913446
vt 0.399773 0.672355
vt 0.605036 0.672355
vt 0.620350 0.672355
vt 0.620350 0.913446
vt 0.612209 0.913446
vt 0.612209 0.672355
vt 0.627801 0.913446
vt 0.627801 0.672355
vt 0.638649 0.672355
vt 0.638649 0.913446
vt 0.645341 0.913446
vt 0.645341 0.672355
vt 0.652858 0.672355
vt 0.652858 0.913446
vt 0.674533 0.672355
vt 0.674533 0.913446
vt 0.660933 0.913446
vt 0.660933 0.672355
vt 0.045925 0.350642
vt 0.080367 0.354404
vt 0.080367 0.595495
vt 0.045925 0.591567
vt 0.127079 0.350642
vt 0.161521 0.350642
vt 0.161521 0.591733
vt 0.127079 0.591733
vt 0.161521 0.597391
vt 0.127079 0.599729
vt 0.001992 0.595725
vt 0.036434 0.595725
vt 0.036434 0.836816
vt 0.001992 0.836816
vt 0.414882 0.361490
vt 0.449324 0.361490
vt 0.449324 0.602582
vt 0.414882 0.602582
vt 0.414882 0.350642
vt 0.449324 0.353349
vt 0.449324 0.610098
vt 0.414882 0.616182
vt 0.043115 0.599487
vt 0.077557 0.599487
vt 0.077557 0.840578
vt 0.043115 0.840578
vt 0.086502 0.356998
vt 0.120944 0.356998
vt 0.120944 0.598089
vt 0.086502 0.598089
vt 0.086502 0.350642
vt 0.120944 0.350642
vt 0.084043 0.602081
vt 0.118485 0.602081
vt 0.118485 0.843172
vt 0.084043 0.843172
vt 0.167656 0.368170
vt 0.202097 0.364242
vt 0.202097 0.605333
vt 0.167656 0.609095
vt 0.236539 0.364242
vt 0.236539 0.605333
vt 0.202097 0.356246
vt 0.236539 0.358584
vt 0.270981 0.364242
vt 0.270981 0.605333
vt 0.305422 0.364242
vt 0.305422 0.605333
vt 0.270981 0.350642
vt 0.305422 0.356726
vt 0.339864 0.364242
vt 0.339864 0.605333
vt 0.305422 0.613474
vt 0.270981 0.616182
vt 0.374306 0.364242
vt 0.374306 0.605333
vt 0.408747 0.364242
vt 0.408747 0.605333
vt 0.374306 0.611689
vt 0.339864 0.611689
vt 0.664831 0.001823
vt 0.699272 0.001823
vt 0.699272 0.237170
vt 0.664831 0.237170
vt 0.733714 0.001823
vt 0.733714 0.242915
vt 0.733714 0.319545
vt 0.699272 0.319545
vt 0.005348 0.350642
vt 0.039790 0.350642
vt 0.039790 0.591733
vt 0.005348 0.591733
vt 0.455459 0.350642
vt 0.489901 0.350642
vt 0.489901 0.591733
vt 0.455459 0.591733
vt 0.489901 0.625795
vt 0.455459 0.625795
vt 0.001992 0.001823
vt 0.036434 0.001823
vt 0.036434 0.242915
vt 0.001992 0.242915
vt 0.036434 0.346650
vt 0.001992 0.346650
vt 0.963566 0.645251
vt 0.998008 0.645251
vt 0.998008 0.880597
vt 0.963566 0.880597
vt 0.740840 0.084199
vt 0.775281 0.078454
vt 0.775281 0.319545
vt 0.740840 0.319545
vt 0.740840 0.001823
vt 0.775281 0.001823
vt 0.159413 0.603721
vt 0.159413 0.844812
vt 0.124971 0.844812
vt 0.124971 0.603721
vt 0.124971 0.666953
vt 0.159413 0.666953
vt 0.165899 0.620174
vt 0.200341 0.620174
vt 0.200341 0.861265
vt 0.165899 0.861265
vt 0.043115 0.105559
vt 0.077557 0.105559
vt 0.077557 0.346650
vt 0.043115 0.346650
vt 0.043115 0.071497
vt 0.077557 0.071497
vt 0.111998 0.105559
vt 0.111998 0.346650
vt 0.077557 0.001823
vt 0.111998 0.001823
vt 0.146440 0.346650
vt 0.111998 0.141388
vt 0.146440 0.141388
vt 0.241268 0.861265
vt 0.241268 0.798032
vt 0.206827 0.798032
vt 0.206827 0.861265
vt 0.206827 0.620173
vt 0.241268 0.620173
vt 0.716813 0.877617
vt 0.682371 0.877617
vt 0.682371 0.913446
vt 0.682371 0.672355
vt 0.716813 0.672355
vn 0.192565 0.000000 0.981284
vn 0.097063 0.000000 0.995278
vn 0.080792 0.000000 0.996731
vn 0.192565 0.000000 0.981284
vn 0.000000 0.000000 1.000000
vn 0.000000 0.000000 1.000000
vn 0.139863 0.000000 0.990171
vn 0.139863 0.000000 0.990171
vn 0.139863 0.000000 0.990171
vn 0.139863 0.000000 0.990171
vn 0.000000 0.000000 1.000000
vn 0.000000 0.000000 1.000000
vn 0.000000 0.000000 1.000000
vn 0.000000 0.000000 1.000000
vn 0.000000 0.000000 1.000000
vn 0.000000 0.000000 1.000000
vn 0.000000 0.000000 1.000000
vn 0.000000 0.000000 1.000000
vn 0.000000 1.000000 0.000000
vn 0.000000 1.000000 0.000000
vn 0.000000 1.000000 0.000000
vn 0.000000 1.000000 0.000000
vn 0.000000 1.000000 0.000000
vn 0.000000 1.000000 0.000000
vn 0.000000 1.000000 0.000000
vn 0.000000 1.000000 0.000000
vn 0.000000 1.000000 0.000000
vn 0.000000 1.000000 0.000000
vn 0.000000 1.000000 0.000000
vn 0.000000 1.000000 0.000000
vn 0.000000 1.000000 0.000000
vn 0.000000 1.000000 0.000000
vn 0.000000 1.000000 0.000000
vn 0.000000 1.000000 0.000000
vn 0.000000 1.000000 0.000000
vn 0.000000 1.000000 0.000000
vn 0.000000 1.000000 0.000000
vn 0.000000 1.000000 0.000000
vn 0.000000 1.000000 0.000000
vn 0.000000 1.000000 0.000000
vn 0.000000 1.000000 0.000000
vn 0.000000 1.000000 0.000000
vn 0.000000 1.000000 0.000000
vn 0.000000 1.000000 0.000000
vn 0.000000 1.000000 0.000000
vn 0.000000 1.000000 0.000000
vn -0.200748 0.000000 -0.979643
vn -0.200748 0.000000 -0.979643
vn -0.200748 0.000000 -0.979643
vn -0.200748 0.000000 -0.979643
vn 0.121084 -0.000000 -0.992642
vn 0.121084 -0.000000 -0.992642
vn 0.121084 -0.000000 -0.992642
vn 0.121084 -0.000000 -0.992642
vn 0.000000 0.000000 -0.000000
vn 0.000000 0.000000 -1.000000
vn 0.000000 0.000000 -1.000000
vn 0.000000 0.000000 -0.000000
vn 0.000000 0.000000 -1.000000
vn 0.000000 0.000000 -1.000000
vn 0.302501 0.000000 -0.953149
vn 0.302501 0.000000 -0.953149
vn 0.302501 0.000000 -0.953149
vn 0.302501 0.000000 -0.953149
vn 0.000000 0.000000 -1.000000
vn 0.000000 0.000000 -1.000000
vn 0.000000 0.000000 -1.000000
vn 0.000000 0.000000 -1.000000
vn 0.000000 0.000000 -1.000000
vn 0.000000 0.000000 -1.000000
vn 0.996854 0.000000 -0.079263
vn 0.000000 0.000000 -1.000000
vn 0.996854 0.000000 -0.079263
vn 0.000000 -1.000000 0.000000
vn 0.000000 -1.000000 0.000000
vn 0.000000 -1.000000 0.000000
vn 0.000000 -1.000000 0.000000
vn 0.000000 -1.000000 0.000000
vn 0.000000 -1.000000 0.000000
vn 0.000000 -1.000000 0.000000
vn 0.000000 -1.000000 0.000000
vn 0.000000 -1.000000 0.000000
vn 0.000000 -1.000000 0.000000
vn 0.000000 -1.000000 0.000000
vn 0.000000 -1.000000 0.000000
vn 0.000000 -1.000000 0.000000
vn 0.000000 -1.000000 0.000000
vn 0.000000 -1.000000 0.000000
vn 0.000000 -1.000000 0.000000
vn -1.000000 0.000000 0.000000
vn -1.000000 0.000000 0.000000
vn -1.000000 0.000000 0.000000
vn -1.000000 0.000000 0.000000
vn 0.000000 0.000000 1.000000
vn 0.000000 0.000000 1.000000
vn 1.000000 0.000000 0.000000
vn 1.000000 -0.000000 0.000000
vn 1.000000 0.000000 0.000000
vn 1.000000 0.000000 0.000000
vn 0.121084 0.000000 -0.992642
vn 0.121084 0.000000 -0.992642
vn -1.000000 0.000000 0.000000
vn -1.000000 0.000000 0.000000
vn -1.000000 0.000000 0.000000
vn -1.000000 0.000000 0.000000
vn 0.000000 0.000000 0.000000
vn 0.000000 0.000000 1.000000
vn 0.000000 0.000000 1.000000
vn 0.000000 0.000000 0.000000
vn 0.000000 0.000000 1.000000
vn 0.000000 0.000000 1.000000
vn -1.000000 0.000000 0.000000
vn -1.000000 0.000000 0.000000
vn -1.000000 0.000000 0.000000
vn -1.000000 0.000000 0.000000
vn 1.000000 0.000000 0.000000
vn 1.000000 0.000000 0.000000
vn 0.000000 0.000000 1.000000
vn 0.000000 0.000000 1.000000
vn 1.000000 0.000000 0.000000
vn 1.000000 0.000000 0.000000
vn 1.000000 0.000000 0.000000
vn 1.000000 0.000000 0.000000
vn 0.000000 0.000000 -1.000000
vn 0.000000 0.000000 -1.000000
vn -1.000000 0.000000 0.000000
vn -1.000000 0.000000 0.000000
vn -1.000000 0.000000 0.000000
vn -1.000000 0.000000 0.000000
vn 0.000000 0.000000 1.000000
vn 0.000000 0.000000 1.000000
vn 1.000000 0.000000 0.000000
vn 1.000000 0.000000 0.000000
vn 1.000000 0.000000 0.000000
vn 1.000000 0.000000 0.000000
vn 0.000000 0.000000 -1.000000
vn 0.000000 0.000000 -1.000000
vn -1.000000 0.000000 0.000000
vn -1.000000 0.000000 0.000000
vn -1.000000 0.000000 0.000000
vn -1.000000 0.000000 0.000000
vn 0.996854 0.000000 0.079263
vn 0.996854 0.000000 0.079263
vn 1.000000 0.000000 0.000000
vn 1.000000 0.000000 0.000000
vn 1.000000 -0.000001 0.000000
vn 1.000000 -0.000001 0.000000
vn 1.000000 -0.000001 0.000000
vn 0.000000 -1.000000 0.000000
vn 0.000000 -1.000000 0.000000
vn -1.000000 0.000000 0.000000
vn -1.000000 0.000000 0.000000
vn -1.000000 0.000000 0.000000
vn -1.000000 0.000000 0.000000
vn 0.000000 1.000000 0.000000
vn 0.000000 1.000000 0.000000
vn 1.000000 0.000000 0.000001
vn 0.000000 0.000000 0.000000
vn 0.000000 0.000000 0.000000
vn 0.000000 0.000000 0.000000
vn 0.000000 0.000000 0.000000
vn 0.000000 0.000000 0.000000
vn 0.000000 0.000000 0.000000
vn 0.000000 0.000000 0.000000
vn 0.000000 0.000000 0.000000
vn 0.000000 0.000000 0.000000
vn 0.000000 0.000000 0.000000
vn 0.000000 0.000000 0.000000
vn 0.000000 0.000000 0.000000
vn 0.000000 0.000000 0.000000
vn 0.000000 0.000000 0.000000
vn 0.000000 0.000000 0.000000
vn 0.000000 0.000000 0.000000
vn 0.000000 0.000000 0.000000
vn 0.000000 0.000000 0.000000
vn 0.000000 0.000000 0.000000
vn 0.000000 0.000000 0.000000
vn 0.000000 0.000000 0.000000
vn 0.000000 0.000000 0.000000
vn 0.000000 0.000000 0.000000
vn 0.000000 0.000000 0.000000
vn 0.000000 -1.000000 0.000000
vn 0.000000 -1.000000 0.000000
vn 1.000000 0.000000 0.000000
vn 1.000000 0.000000 0.000000
vn 1.000000 0.000000 0.000000
vn 1.000000 0.000000 0.000000
vn 0.000000 1.000000 0.000000
vn 0.000000 1.000000 0.000000
vn -1.000000 0.000000 0.000000
vn -1.000000 0.000000 0.000000
vn -1.000000 0.000000 0.000000
vn -1.000000 0.000000 0.000000
vn 0.000000 1.000000 0.000000
vn 0.000000 1.000000 0.000000
vn 1.000000 0.000000 0.000000
vn 1.000000 0.000000 0.000000
vn 1.000000 0.000000 0.000000
vn 1.000000 0.000000 0.000000
vn 0.000000 -1.000000 0.000000
vn 0.000000 -1.000000 0.000000
vn -1.000000 0.000000 0.000000
vn -1.000000 0.000000 0.000000
vn -1.000000 0.000000 0.000000
vn -1.000000 0.000000 0.000000
vn 0.000000 -1.000000 0.000000
vn 0.000000 -1.000000 0.000000
vn 1.000000 0.000000 0.000000
vn 1.000000 0.000000 0.000000
vn 1.000000 0.000000 0.000000
vn -1.000000 0.000000 0.000000
vn -1.000000 0.000000 0.000000
vn -1.000000 0.000000 0.000000
vn 1.000000 0.000000 0.000000
vn 0.000000 1.000000 0.000000
vn 0.000000 1.000000 0.000000
vn -1.000000 0.000000 0.000000
vn 0.000000 0.000000 1.000000
vn 0.000000 0.000000 0.000000
vn 0.000000 0.000000 1.000000
s 1
g pCube1
usemtl initialShadingGroup
f 1/133/1 2/134/2 10/135/3 9/136/4
f 2/134/2 3/137/5 11/138/6 10/135/3
s off
f 63/141/7 64/142/8 65/143/9 66/144/10
s 2
f 5/145/11 6/146/12 14/147/13 13/148/14
s 3
f 71/151/15 72/152/16 73/153/17 74/154/18
s off
f 9/73/19 10/74/20 17/75/21 16/76/22
s 4
f 31/77/23 32/78/24 33/79/25 34/80/26
s off
f 35/83/27 36/84/28 37/85/29 38/86/30
s 5
f 12/87/31 13/88/32 20/89/33 19/90/34
s off
f 39/95/35 40/96/36 41/97/37 42/98/38
s 6
f 43/99/39 44/100/40 45/101/41 46/102/42
s off
f 47/105/43 48/106/44 49/107/45 50/108/46
f 16/157/47 17/158/48 24/159/49 23/160/50
s 7
f 51/161/51 52/162/52 53/163/53 54/164/54
s off
f 19/167/55 26/168/56 25/169/57 18/170/58 38/171/59 37/172/60
f 67/173/61 68/174/62 69/175/63 70/176/64
s 8
f 20/177/65 21/178/66 28/179/67 27/180/68
f 21/178/66 22/183/69 29/184/70 28/179/67
f 30/187/71 29/184/70 22/183/69 50/188/72 49/189/73
s 9
f 23/109/74 24/110/75 2/111/76 1/112/77
f 24/110/75 25/113/78 3/114/79 2/111/76
f 25/113/78 26/117/80 4/118/81 3/114/79
f 26/117/80 27/119/82 5/120/83 4/118/81
f 27/119/82 28/123/84 6/124/85 5/120/83
f 28/123/84 29/127/86 7/128/87 6/124/85
f 29/127/86 30/129/88 8/130/89 7/128/87
s off
f 23/1/90 1/2/91 9/3/92 16/4/93
s 1
f 10/135/3 11/138/6 32/139/94 31/140/95
s 10
f 11/5/96 18/6/97 33/7/98 32/8/99
s 7
f 52/162/52 51/161/51 55/165/100 56/166/101
s 11
f 17/15/102 10/16/103 31/17/104 34/18/105
s off
f 57/190/106 58/191/107 59/192/108 60/193/109 61/194/110 62/195/111
f 12/23/112 19/24/113 37/25/114 36/26/115
s 10
f 18/6/97 11/5/96 35/9/116 38/10/117
s 2
f 13/148/14 14/147/13 40/149/118 39/150/119
s off
f 14/27/120 21/28/121 41/29/122 40/30/123
s 8
f 21/178/66 20/177/65 42/181/124 41/182/125
s off
f 20/31/126 13/32/127 39/33/128 42/34/129
s 3
f 74/154/18 73/153/17 75/155/130 76/156/131
s 12
f 15/35/132 22/36/133 45/37/134 44/38/135
s 8
f 22/183/69 21/178/66 46/185/136 45/186/137
s 13
f 21/45/138 14/46/139 43/47/140 46/48/141
s 8
f 48/53/142 8/54/143 30/55/71 49/56/73
s 12
f 22/36/133 15/35/132 47/39/144 50/40/145
s 10
f 18/6/97 25/13/146 53/14/147 52/11/148
s 9
f 25/113/78 24/110/75 54/115/149 53/116/150
s 11
f 24/21/151 17/15/102 51/20/152 54/22/153
f 17/15/102 34/18/105 55/19/154 51/20/152
s 4
f 34/80/26 33/79/25 56/81/155 55/82/156
s 10
f 33/7/98 18/6/97 52/11/148 56/12/157
s off
f 12//158 36//159 58//160 57//161
f 36//162 35//163 59//164 58//165
f 35//166 11//167 60//168 59//169
f 11//170 3//171 61//172 60//173
f 3//174 4//175 62//176 61//177
f 4//178 12//179 57//180 62//181
s 9
f 4/118/81 5/120/83 64/125/182 63/126/183
s off
f 5/57/184 13/58/185 65/59/186 64/60/187
s 5
f 13/88/32 12/87/31 66/91/188 65/92/189
s off
f 12/61/190 4/62/191 63/63/192 66/64/193
s 5
f 19/90/34 20/89/33 68/93/194 67/94/195
s off
f 20/65/196 27/66/197 69/67/198 68/68/199
s 9
f 27/119/82 26/117/80 70/121/200 69/122/201
s off
f 26/69/202 19/70/203 67/71/204 70/72/205
s 9
f 6/124/85 7/128/87 72/131/206 71/132/207
s 12
f 7/43/208 15/35/132 73/42/209 72/44/210
s 13
f 14/46/139 6/51/211 71/52/212 74/49/213
s 12
f 15/35/132 44/38/135 75/41/214 73/42/209
s 6
f 44/100/40 43/99/39 76/103/215 75/104/216
s 13
f 43/47/140 14/46/139 74/49/213 76/50/217
s 8
f 48/196/142 47/197/218 15/198/219 7/199/220 8/200/143
